# xmcd CD database file
#
# Track frame offsets:
#	150
#	17429
#	33152
#	50597
#	65418
#	81175
#	96145
#	115123
#	138708
#	154790
#	171436
#	189958
#
# Disc length: 2732 seconds
#
# Revision: 4
# Processed by: cddbd v1.5.2PL0 Copyright (c) Steve Scherf et al.
# Submitted via: CDex 2.07
#
DISCID=970aaa0c
DTITLE=Sting - The Last Ship
DYEAR=2013
DGENRE=Folk
TTITLE0=The Last Ship
TTITLE1=Dead Man's Boots
TTITLE2=And Yet
TTITLE3=August Winds
TTITLE4=Language of Birds
TTITLE5=Practical Arrangement
TTITLE6=The Night the Pugilist Learned How to Dance
TTITLE7=Ballad of the Great Eastern
TTITLE8=What Have We Got? (feat. Jimmy Nail)
TTITLE9=I Love Her but She Loves Someone Else
TTITLE10=So to Speak (feat. Becky Unthank)
TTITLE11=The Last Ship (Reprise)
EXTD=YEAR: 2013
EXTT0=
EXTT1=
EXTT2=
EXTT3=
EXTT4=
EXTT5=
EXTT6=
EXTT7=
EXTT8=
EXTT9=
EXTT10=
EXTT11=
PLAYORDER=
